<svg xmlns="http://www.w3.org/2000/svg" viewBox="0 0 780 480" role="img" aria-label="Graph showing how LLM constraints affect net value, with zones for under-constrained risk, optimal proportionality, and over-constrained waste">
  <defs>
    <linearGradient id="riskZone" x1="0" y1="0" x2="0.25" y2="0">
      <stop offset="0%" stop-color="#ef4444" stop-opacity="0.12"/>
      <stop offset="100%" stop-color="#ef4444" stop-opacity="0.03"/>
    </linearGradient>
    <linearGradient id="optimalZone" x1="0" y1="0" x2="1" y2="0">
      <stop offset="0%" stop-color="#009688" stop-opacity="0.03"/>
      <stop offset="50%" stop-color="#009688" stop-opacity="0.12"/>
      <stop offset="100%" stop-color="#009688" stop-opacity="0.03"/>
    </linearGradient>
    <linearGradient id="wasteZone" x1="0.75" y1="0" x2="1" y2="0">
      <stop offset="0%" stop-color="#f59e0b" stop-opacity="0.03"/>
      <stop offset="100%" stop-color="#f59e0b" stop-opacity="0.12"/>
    </linearGradient>
    <marker id="arrowX" markerWidth="8" markerHeight="6" refX="7" refY="3" orient="auto">
      <polygon points="0 0, 8 3, 0 6" fill="#334155"/>
    </marker>
    <marker id="arrowY" markerWidth="6" markerHeight="8" refX="3" refY="0" orient="auto">
      <polygon points="0 8, 3 0, 6 8" fill="#334155"/>
    </marker>
  </defs>

  <!-- Background -->
  <rect width="780" height="480" rx="8" fill="#f8fafc"/>

  <!-- Title -->
  <text x="390" y="32" font-family="Inter, system-ui, sans-serif" font-size="15" font-weight="700" fill="#1e293b" text-anchor="middle">The Constraint Curve: When LLM Controls Become Counterproductive</text>

  <!-- Chart area: x=80..720, y=55..390 -->

  <!-- Zone backgrounds -->
  <rect x="80" y="55" width="185" height="335" fill="url(#riskZone)"/>
  <rect x="265" y="55" width="230" height="335" fill="url(#optimalZone)"/>
  <rect x="495" y="55" width="225" height="335" fill="url(#wasteZone)"/>

  <!-- Zone divider lines -->
  <line x1="265" y1="55" x2="265" y2="390" stroke="#94a3b8" stroke-width="1" stroke-dasharray="6,4"/>
  <line x1="495" y1="55" x2="495" y2="390" stroke="#94a3b8" stroke-width="1" stroke-dasharray="6,4"/>

  <!-- Zone labels at top -->
  <text x="172" y="74" font-family="Inter, system-ui, sans-serif" font-size="10" font-weight="600" fill="#dc2626" text-anchor="middle" text-transform="uppercase" letter-spacing="0.5">UNDER-CONSTRAINED</text>
  <text x="172" y="87" font-family="Inter, system-ui, sans-serif" font-size="9" fill="#dc2626" text-anchor="middle" opacity="0.8">Security risk</text>
  <text x="380" y="74" font-family="Inter, system-ui, sans-serif" font-size="10" font-weight="600" fill="#009688" text-anchor="middle" text-transform="uppercase" letter-spacing="0.5">PROPORTIONATE</text>
  <text x="380" y="87" font-family="Inter, system-ui, sans-serif" font-size="9" fill="#009688" text-anchor="middle" opacity="0.8">Optimal controls</text>
  <text x="607" y="74" font-family="Inter, system-ui, sans-serif" font-size="10" font-weight="600" fill="#d97706" text-anchor="middle" text-transform="uppercase" letter-spacing="0.5">OVER-CONSTRAINED</text>
  <text x="607" y="87" font-family="Inter, system-ui, sans-serif" font-size="9" fill="#d97706" text-anchor="middle" opacity="0.8">Diminishing returns</text>

  <!-- Axes -->
  <line x1="80" y1="390" x2="720" y2="390" stroke="#334155" stroke-width="1.5" marker-end="url(#arrowX)"/>
  <line x1="80" y1="390" x2="80" y2="55" stroke="#334155" stroke-width="1.5" marker-end="url(#arrowY)"/>

  <!-- X axis label -->
  <text x="400" y="420" font-family="Inter, system-ui, sans-serif" font-size="11" font-weight="600" fill="#334155" text-anchor="middle">Degree of Constraint</text>
  <text x="100" y="435" font-family="Inter, system-ui, sans-serif" font-size="9" fill="#64748b" text-anchor="start">No controls</text>
  <text x="700" y="435" font-family="Inter, system-ui, sans-serif" font-size="9" fill="#64748b" text-anchor="end">Full determinism</text>

  <!-- Y axis label -->
  <text x="28" y="225" font-family="Inter, system-ui, sans-serif" font-size="11" font-weight="600" fill="#334155" text-anchor="middle" transform="rotate(-90, 28, 225)">Net Value Delivered</text>

  <!-- Gridlines (subtle) -->
  <line x1="80" y1="310" x2="720" y2="310" stroke="#e2e8f0" stroke-width="0.5"/>
  <line x1="80" y1="230" x2="720" y2="230" stroke="#e2e8f0" stroke-width="0.5"/>
  <line x1="80" y1="150" x2="720" y2="150" stroke="#e2e8f0" stroke-width="0.5"/>

  <!-- NET VALUE curve (bell curve skewed left) -->
  <!-- Rises steeply with initial constraints, peaks in the proportionate zone, then declines as over-constraining sets in -->
  <path d="M 80,370 C 120,360 160,280 220,170 C 260,105 310,95 380,100 C 430,104 480,130 530,200 C 580,270 630,320 700,355" fill="none" stroke="#009688" stroke-width="2.5" stroke-linecap="round"/>
  <!-- Curve label -->
  <text x="405" y="92" font-family="Inter, system-ui, sans-serif" font-size="10" font-weight="600" fill="#009688" text-anchor="middle">Net value</text>

  <!-- CONTROL COST curve (exponential rise) -->
  <path d="M 80,385 C 140,382 220,370 300,345 C 380,315 460,260 540,190 C 600,140 660,100 720,70" fill="none" stroke="#ef4444" stroke-width="2" stroke-dasharray="8,4" stroke-linecap="round"/>
  <!-- Curve label -->
  <text x="680" y="60" font-family="Inter, system-ui, sans-serif" font-size="10" font-weight="600" fill="#ef4444" text-anchor="end">Control cost</text>

  <!-- CAPABILITY UTILISED curve (diminishing) -->
  <path d="M 80,100 C 140,108 200,130 280,175 C 360,225 440,290 540,335 C 600,355 660,368 720,375" fill="none" stroke="#6366f1" stroke-width="2" stroke-dasharray="4,3" stroke-linecap="round"/>
  <!-- Curve label -->
  <text x="95" y="95" font-family="Inter, system-ui, sans-serif" font-size="10" font-weight="600" fill="#6366f1" text-anchor="start">LLM capability utilised</text>

  <!-- Peak marker -->
  <circle cx="365" cy="98" r="5" fill="#009688" stroke="#fff" stroke-width="2"/>
  <text x="365" y="118" font-family="Inter, system-ui, sans-serif" font-size="9" fill="#0f766e" text-anchor="middle" font-weight="600">Peak value</text>

  <!-- Crossover marker where cost exceeds value -->
  <circle cx="528" cy="200" r="4" fill="#ef4444" stroke="#fff" stroke-width="2"/>
  <line x1="528" y1="204" x2="528" y2="250" stroke="#ef4444" stroke-width="1" stroke-dasharray="2,2"/>
  <text x="528" y="264" font-family="Inter, system-ui, sans-serif" font-size="8.5" fill="#dc2626" text-anchor="middle" font-weight="600">Cost exceeds value</text>

  <!-- Risk tier markers on X axis -->
  <line x1="135" y1="390" x2="135" y2="396" stroke="#334155" stroke-width="1"/>
  <text x="135" y="408" font-family="Inter, system-ui, sans-serif" font-size="8" fill="#64748b" text-anchor="middle">LOW</text>

  <line x1="290" y1="390" x2="290" y2="396" stroke="#334155" stroke-width="1"/>
  <text x="290" y="408" font-family="Inter, system-ui, sans-serif" font-size="8" fill="#64748b" text-anchor="middle">MEDIUM</text>

  <line x1="420" y1="390" x2="420" y2="396" stroke="#334155" stroke-width="1"/>
  <text x="420" y="408" font-family="Inter, system-ui, sans-serif" font-size="8" fill="#64748b" text-anchor="middle">HIGH</text>

  <line x1="580" y1="390" x2="580" y2="396" stroke="#334155" stroke-width="1"/>
  <text x="580" y="408" font-family="Inter, system-ui, sans-serif" font-size="8" fill="#64748b" text-anchor="middle">CRITICAL</text>

  <!-- Annotation callouts -->

  <!-- Left callout: uncontrolled risk -->
  <rect x="90" y="290" width="140" height="52" rx="4" fill="#fff" stroke="#fca5a5" stroke-width="1"/>
  <text x="160" y="306" font-family="Inter, system-ui, sans-serif" font-size="8.5" fill="#991b1b" text-anchor="middle" font-weight="600">Injection, data leaks,</text>
  <text x="160" y="318" font-family="Inter, system-ui, sans-serif" font-size="8.5" fill="#991b1b" text-anchor="middle" font-weight="600">uncontrolled tool access</text>
  <text x="160" y="334" font-family="Inter, system-ui, sans-serif" font-size="8" fill="#b91c1c" text-anchor="middle">High capability, high risk</text>

  <!-- Right callout: expensive rules engine -->
  <rect x="570" y="290" width="140" height="52" rx="4" fill="#fff" stroke="#fcd34d" stroke-width="1"/>
  <text x="640" y="306" font-family="Inter, system-ui, sans-serif" font-size="8.5" fill="#92400e" text-anchor="middle" font-weight="600">Rubber-stamp reviews,</text>
  <text x="640" y="318" font-family="Inter, system-ui, sans-serif" font-size="8.5" fill="#92400e" text-anchor="middle" font-weight="600">alert fatigue, bypasses</text>
  <text x="640" y="334" font-family="Inter, system-ui, sans-serif" font-size="8" fill="#b45309" text-anchor="middle">Expensive rules engine</text>

  <!-- Footer -->
  <text x="390" y="468" font-family="Inter, system-ui, sans-serif" font-size="9" fill="#94a3b8" text-anchor="middle">AI Runtime Security, 2026 - Jonathan Gill</text>
</svg>