<svg xmlns="http://www.w3.org/2000/svg" width="900" height="520" viewBox="0 0 900 520" font-family="'Segoe UI', 'Helvetica Neue', Arial, sans-serif">
  <defs>
    <linearGradient id="bg" x1="0%" y1="0%" x2="100%" y2="100%">
      <stop offset="0%" stop-color="#0a0e1a"/>
      <stop offset="100%" stop-color="#1a1e3a"/>
    </linearGradient>
  </defs>

  <rect width="900" height="520" fill="url(#bg)"/>

  <!-- Title -->
  <text x="450" y="32" text-anchor="middle" fill="#fff" font-size="16" font-weight="700" letter-spacing="2">TIER 1 - SUPERVISED MULTI-AGENT ARCHITECTURE</text>
  <text x="450" y="50" text-anchor="middle" fill="#ff6b35" font-size="10" letter-spacing="1">LOW AUTONOMY · HUMAN-IN-THE-LOOP · PILOT PHASE</text>
  <line x1="150" y1="60" x2="750" y2="60" stroke="#ff6b35" stroke-width="0.6" opacity="0.4"/>

  <!-- Human Operator box -->
  <rect x="250" y="75" width="400" height="60" rx="8" fill="#0d1225" stroke="#92fe9d" stroke-width="2"/>
  <rect x="250" y="75" width="400" height="4" rx="2" fill="#92fe9d"/>
  <text x="450" y="102" text-anchor="middle" fill="#92fe9d" font-size="14" font-weight="700">HUMAN OPERATOR</text>
  <text x="450" y="120" text-anchor="middle" fill="#8899aa" font-size="10">Approves all write operations</text>

  <!-- Approval gate arrow -->
  <line x1="450" y1="135" x2="450" y2="165" stroke="#92fe9d" stroke-width="2"/>
  <polygon points="442,160 450,172 458,160" fill="#92fe9d"/>
  <rect x="370" y="145" width="160" height="20" rx="10" fill="#0a0e1a" stroke="#92fe9d" stroke-width="1" opacity="0.8"/>
  <text x="450" y="159" text-anchor="middle" fill="#92fe9d" font-size="8" font-weight="600">APPROVAL GATE</text>

  <!-- Main system boundary -->
  <rect x="60" y="175" width="780" height="300" rx="10" fill="none" stroke="#334" stroke-width="1" stroke-dasharray="6,3"/>
  <text x="80" y="195" fill="#556" font-size="9" letter-spacing="1">AGENT SYSTEM BOUNDARY</text>

  <!-- Agent A -->
  <rect x="100" y="210" width="220" height="100" rx="8" fill="#0d1225" stroke="#00c9ff" stroke-width="1.5"/>
  <rect x="100" y="210" width="220" height="4" rx="2" fill="#00c9ff"/>
  <text x="210" y="240" text-anchor="middle" fill="#00c9ff" font-size="13" font-weight="700">Agent A</text>
  <text x="210" y="258" text-anchor="middle" fill="#8899aa" font-size="10">(Task Agent)</text>
  <text x="210" y="278" text-anchor="middle" fill="#667" font-size="9">Simple string identifier</text>
  <text x="210" y="294" text-anchor="middle" fill="#667" font-size="9">Scoped tool permissions</text>

  <!-- Agent B -->
  <rect x="580" y="210" width="220" height="100" rx="8" fill="#0d1225" stroke="#00c9ff" stroke-width="1.5"/>
  <rect x="580" y="210" width="220" height="4" rx="2" fill="#00c9ff"/>
  <text x="690" y="240" text-anchor="middle" fill="#00c9ff" font-size="13" font-weight="700">Agent B</text>
  <text x="690" y="258" text-anchor="middle" fill="#8899aa" font-size="10">(Task Agent)</text>
  <text x="690" y="278" text-anchor="middle" fill="#667" font-size="9">Simple string identifier</text>
  <text x="690" y="294" text-anchor="middle" fill="#667" font-size="9">Scoped tool permissions</text>

  <!-- Message Bus -->
  <rect x="355" y="225" width="190" height="70" rx="8" fill="#0d1225" stroke="#ffd700" stroke-width="1.5"/>
  <rect x="355" y="225" width="190" height="4" rx="2" fill="#ffd700"/>
  <text x="450" y="255" text-anchor="middle" fill="#ffd700" font-size="12" font-weight="700">Message Bus</text>
  <text x="450" y="273" text-anchor="middle" fill="#8899aa" font-size="9">Logged · Not Signed</text>
  <text x="450" y="287" text-anchor="middle" fill="#667" font-size="9">(Signing deferred to Tier 2)</text>

  <!-- Connection lines Agent A <-> Bus -->
  <line x1="320" y1="260" x2="355" y2="260" stroke="#445" stroke-width="1.5"/>
  <polygon points="350,256 358,260 350,264" fill="#445"/>
  <polygon points="325,256 317,260 325,264" fill="#445"/>

  <!-- Connection lines Agent B <-> Bus -->
  <line x1="545" y1="260" x2="580" y2="260" stroke="#445" stroke-width="1.5"/>
  <polygon points="575,256 583,260 575,264" fill="#445"/>
  <polygon points="550,256 542,260 550,264" fill="#445"/>

  <!-- Guardrails A -->
  <rect x="120" y="330" width="180" height="45" rx="6" fill="#0d1225" stroke="#f5576c" stroke-width="1.2"/>
  <text x="210" y="350" text-anchor="middle" fill="#f5576c" font-size="11" font-weight="600">Guardrails</text>
  <text x="210" y="366" text-anchor="middle" fill="#8899aa" font-size="9">Layer 1 · MANDATORY</text>

  <!-- Guardrails B -->
  <rect x="600" y="330" width="180" height="45" rx="6" fill="#0d1225" stroke="#f5576c" stroke-width="1.2"/>
  <text x="690" y="350" text-anchor="middle" fill="#f5576c" font-size="11" font-weight="600">Guardrails</text>
  <text x="690" y="366" text-anchor="middle" fill="#8899aa" font-size="9">Layer 1 · MANDATORY</text>

  <!-- Layer status boxes -->
  <rect x="100" y="400" width="340" height="55" rx="6" fill="#0d1225" stroke="#445" stroke-width="1" stroke-dasharray="4,2"/>
  <text x="270" y="420" text-anchor="middle" fill="#667" font-size="10" font-weight="600">Layer 2 - Model-as-Judge</text>
  <text x="270" y="436" text-anchor="middle" fill="#556" font-size="9">OPTIONAL at Tier 1</text>
  <text x="270" y="448" text-anchor="middle" fill="#445" font-size="8">(Deploy if available · not a gating requirement)</text>

  <rect x="460" y="400" width="340" height="55" rx="6" fill="#0d1225" stroke="#92fe9d" stroke-width="1.5"/>
  <text x="630" y="420" text-anchor="middle" fill="#92fe9d" font-size="10" font-weight="600">Layer 3 - Human Oversight</text>
  <text x="630" y="436" text-anchor="middle" fill="#92fe9d" font-size="9">MANDATORY for all writes</text>
  <text x="630" y="448" text-anchor="middle" fill="#8899aa" font-size="8">(Dominant control at Tier 1)</text>

  <!-- Footer -->
  <rect x="60" y="485" width="780" height="25" rx="4" fill="#0a0e1a" stroke="#333" stroke-width="0.5"/>
  <text x="450" y="502" text-anchor="middle" fill="#556" font-size="9">PACE: Primary + Emergency active · Alternate optional · Contingency not required · Kill switch tested weekly</text>
</svg>
